HIERARCHY
ROOT Hips
{
  OFFSET 0 89.5177 0.535
  CHANNELS 6 Xposition Yposition Zposition Zrotation Xrotation Yrotation
  JOINT Spine
  {
    OFFSET 12.0259 -0.162855 1.69034e-005
    CHANNELS 3 Zrotation Xrotation Yrotation
    JOINT Spine1
    {
      OFFSET 15.3169 -0.0121922 0
      CHANNELS 3 Zrotation Xrotation Yrotation
      JOINT Spine2
      {
        OFFSET 15.3176 -0.0121908 0
        CHANNELS 3 Zrotation Xrotation Yrotation
        JOINT Neck
        {
          OFFSET 19.9142 1.56338 0
          CHANNELS 3 Zrotation Xrotation Yrotation
          JOINT Head
          {
            OFFSET 6.92651 0 0
            CHANNELS 3 Zrotation Xrotation Yrotation
            End Site
            {
              OFFSET 20.7666 0 0
            }
          }
          JOINT LeftShoulder
          {
            OFFSET -6.20654 0.708824 7.28219
            CHANNELS 3 Zrotation Xrotation Yrotation
            JOINT LeftArm
            {
              OFFSET 14.108 0 -1.52588e-005
              CHANNELS 3 Zrotation Xrotation Yrotation
              JOINT LeftForeArm
              {
                OFFSET 28.5802 0 0
                CHANNELS 3 Zrotation Xrotation Yrotation
                JOINT LeftHand
                {
                  OFFSET 27.092 0 0
                  CHANNELS 3 Zrotation Xrotation Yrotation
                  End Site
                  {
                    OFFSET 9.55928 -0.186424 0.145352
                  }
                }
              }
            }
          }
          JOINT RightShoulder
          {
            OFFSET -6.20654 0.708866 -7.28218
            CHANNELS 3 Zrotation Xrotation Yrotation
            JOINT RightArm
            {
              OFFSET 14.108 0 1.52588e-005
              CHANNELS 3 Zrotation Xrotation Yrotation
              JOINT RightForeArm
              {
                OFFSET 28.5802 0 0
                CHANNELS 3 Zrotation Xrotation Yrotation
                JOINT RightHand
                {
                  OFFSET 27.092 0 0
                  CHANNELS 3 Zrotation Xrotation Yrotation
                  End Site
                  {
                    OFFSET 9.55929 -0.186417 -0.145354
                  }
                }
              }
            }
          }
        }
      }
    }
  }
  JOINT LeftUpLeg
  {
    OFFSET 0.005 -0.535 8.837
    CHANNELS 3 Zrotation Xrotation Yrotation
    JOINT LeftLeg
    {
      OFFSET 39.9035 0 0
      CHANNELS 3 Zrotation Xrotation Yrotation
      JOINT LeftFoot
      {
        OFFSET 39.6689 0 0
        CHANNELS 3 Zrotation Xrotation Yrotation
        JOINT LeftToe
        {
          OFFSET 10.1624 13.6296 0
          CHANNELS 3 Zrotation Xrotation Yrotation
          End Site
          {
            OFFSET 8.38147 0 0
          }
        }
      }
    }
  }
  JOINT RightUpLeg
  {
    OFFSET 0.005 -0.535 -8.837
    CHANNELS 3 Zrotation Xrotation Yrotation
    JOINT RightLeg
    {
      OFFSET 39.9035 0 0
      CHANNELS 3 Zrotation Xrotation Yrotation
      JOINT RightFoot
      {
        OFFSET 39.6689 0 0
        CHANNELS 3 Zrotation Xrotation Yrotation
        JOINT RightToe
        {
          OFFSET 10.1624 13.6296 0
          CHANNELS 3 Zrotation Xrotation Yrotation
          End Site
          {
            OFFSET 8.38147 0 0
          }
        }
      }
    }
  }
}
MOTION
Frames:	10
Frame Time:	0.0333333
491.199 82.8261 237.103 173.381 -65.712 87.1647 0.49265 0.803715 -1.38881 1.00479 1.59569 -2.78473 1.00479 1.59569 -2.78474 -8.31066e-012 -9.0191e-006 -5.27751e-005 4.74534 0.432329 -9.03813 -178.852 -4.56224 -75.8649 -4.11782 34.0246 60.2311 -85.7064 1.59028e-015 -4.77083e-015 -53.3913 -47.5122 -48.5287 -177.621 6.36696 69.4622 46.636 12.9616 -66.4313 -84.979 -6.36111e-015 -3.18055e-015 -68.9924 46.6768 68.5448 -47.6303 2.77281 170.248 -50.9754 7.45443e-017 4.96962e-017 24.9496 1.64494 -3.12957 90 7.70291e-016 -3.97569e-016 -25.1694 0.419081 176.374 -67.2312 0 -1.98785e-016 -3.12383 -9.18271 18.6778 90 -1.59028e-015 -9.54166e-015 
491.103 82.119 231.706 169.942 -65.5253 84.6087 0.470295 0.0821359 -1.85373 0.943009 0.149484 -3.70792 0.943009 0.149484 -3.70793 -8.30748e-012 -9.0191e-006 -5.27751e-005 4.22385 3.60612 -8.68484 -178.851 -4.72544 -76.3129 -5.84169 31.9637 60.4322 -85.8494 -1.59028e-015 -2.38542e-015 -53.4229 -46.5244 -48.1637 -177.223 7.61439 69.8974 49.5712 10.3261 -64.3646 -97.603 3.18055e-015 -0 -70.3213 46.7385 71.0072 -43.9067 3.13537 169.37 -51.9579 -7.95139e-016 1.59028e-015 29.2163 2.53225 -4.84661 90 2.04997e-015 1.98785e-016 -32.8291 -1.32306 175.102 -80.3339 1.2424e-017 -2.48481e-017 -5.49763 -3.85394 7.7995 90 0 -9.93923e-016 
491.219 82.3488 226.24 170.332 -64.8095 83.6448 0.184063 -0.368391 -1.76974 0.35668 -0.741818 -3.53823 0.35668 -0.741818 -3.53824 -8.30112e-012 -9.0191e-006 -5.27751e-005 3.84081 6.35216 -7.64551 -178.809 -4.87563 -76.2495 -7.29164 29.7313 61.0309 -85.6623 -1.59028e-015 1.59028e-015 -50.5804 -46.1354 -44.0636 -176.877 8.82601 70.4261 50.5736 9.24629 -62.4293 -106.601 0 -3.18055e-015 -71.4634 46.4619 72.952 -39.5006 3.54627 171.605 -50.2853 0 -0 32.2 4.20791 -8.17636 90 -2.56246e-016 -2.48481e-017 -40.7331 -2.14582 176.92 -87.4647 -1.98785e-016 -7.45443e-017 -6.17493 0.592967 -0.884205 90 -9.93923e-017 -2.98177e-016 
491.316 83.5851 220.3 172.083 -64.8831 84.4677 -0.0702049 -0.742434 -1.68792 -0.162262 -1.48201 -3.37701 -0.162262 -1.48201 -3.37702 -8.30748e-012 -9.0191e-006 -5.27751e-005 3.76655 8.84473 -6.50594 -178.775 -4.98769 -76.1869 -8.16948 28.3441 62.0312 -85.9315 -3.18055e-015 -4.77083e-015 -48.4495 -46.6871 -41.6948 -176.731 9.39116 70.7086 50.311 8.35723 -61.1533 -114.368 -1.59028e-014 9.54166e-015 -71.3217 44.5895 72.3643 -33.082 3.43109 173.286 -45.5464 0 1.19271e-015 31.1027 5.12003 -10.0445 90 2.60905e-016 -4.96962e-016 -46.4934 -1.74531 178.86 -88.6821 3.47873e-016 -0 -4.85712 1.62943 -2.91506 90 7.95139e-016 -1.88845e-015 
491.501 85.4041 213.989 174.303 -64.8271 85.2173 -0.292388 -0.98249 -1.38806 -0.608621 -1.95713 -2.78156 -0.608622 -1.95713 -2.78156 -8.3043e-012 -9.0191e-006 -5.27751e-005 3.37638 10.4289 -5.69171 -178.749 -5.18612 -76.4143 -9.67553 27.3048 63.3239 -86.3232 -1.59028e-015 -1.11319e-014 -45.8094 -46.5368 -38.3634 -176.497 10.0464 70.666 47.6606 6.92404 -60.7279 -121.579 -4.77083e-015 -3.18055e-015 -70.277 41.6443 69.4119 -26.4482 3.1783 175.328 -39.5955 0 -1.59028e-015 26.876 6.02633 -10.6232 90 3.23025e-016 -5.96354e-016 -50.4141 -1.4603 -178.461 -84.5037 9.93923e-017 1.98785e-016 -1.65945 0.375252 -0.539951 90 -1.98785e-016 9.93923e-017 
491.651 87.5602 207.325 175.353 -64.353 84.8528 -0.597121 -1.17497 -1.02293 -1.2155 -2.33856 -2.05852 -1.2155 -2.33856 -2.05853 -8.30112e-012 -9.0191e-006 -5.27751e-005 3.25867 11.2529 -4.83995 -178.86 -5.00107 -77.1373 -11.7008 27.2516 65.213 -87.0366 6.36111e-015 6.36111e-015 -44.5542 -47.2076 -37.5583 -176.175 10.7397 70.2632 41.8824 4.28055 -60.5252 -127.31 3.18055e-015 -3.18055e-015 -70.0025 36.4442 64.7813 -20.4158 3.83628 177.436 -33.2546 -1.59028e-015 -1.59028e-015 19.8767 7.58228 -11.5476 90 -9.93923e-016 -1.59028e-015 -52.3356 -2.01802 -176.457 -75.4187 1.39149e-015 -1.98785e-016 1.32353 -0.934899 1.93391 90 1.98785e-016 2.78299e-015 
491.677 89.5729 200.309 174.509 -63.9949 82.9258 -0.864221 -1.43082 -0.649862 -1.74543 -2.85112 -1.32168 -1.74543 -2.85112 -1.32169 -8.31066e-012 -9.0191e-006 -5.27751e-005 3.71065 11.6858 -4.04064 -178.955 -4.86184 -77.849 -13.6717 27.7877 66.6564 -87.8502 -3.18055e-015 -3.18055e-015 -42.5646 -47.6747 -35.264 -175.86 11.1451 69.4688 33.3619 0.684816 -60.2054 -130.992 -3.18055e-015 -9.54166e-015 -69.0514 31.2059 56.8445 -14.8179 2.85596 179.084 -27.0583 0 -0 10.545 9.11219 -12.9342 90 -1.39149e-015 1.59028e-015 -51.6716 -3.58902 -175.786 -62.4047 0 -1.98785e-016 2.59734 -2.18342 4.32998 90 9.93923e-017 -4.96962e-016 
491.647 90.7936 193.051 173.531 -64.1399 81.3172 -1.02632 -1.52466 -0.346798 -2.06294 -3.04237 -0.721069 -2.06294 -3.04237 -0.721079 -8.30112e-012 -9.0191e-006 -5.27751e-005 4.31203 11.4798 -3.34476 -179.099 -4.41317 -78.4498 -15.3674 28.9948 67.6691 -89.0919 -3.18055e-015 -0 -41.316 -49.1405 -34.1129 -175.599 11.379 68.6916 23.827 -3.2922 -60.1164 -132.113 4.37326e-015 3.18055e-015 -67.003 27.8373 48.5563 -9.88557 -0.511959 -179.504 -22.7962 -3.97569e-016 -3.97569e-016 0.595932 10.1973 -16.2574 90 -1.98785e-015 -2.38542e-015 -48.8367 -4.94239 -175.554 -47.1177 -3.97569e-016 2.48481e-016 3.58277 -4.30751 8.53604 90 9.93923e-017 7.95139e-016 
491.563 90.8381 185.815 172.705 -64.8096 80.5799 -1.03591 -1.41158 -0.208617 -2.07788 -2.81867 -0.442755 -2.07788 -2.81867 -0.442765 -8.3043e-012 -9.0191e-006 -5.27751e-005 4.24676 10.561 -2.62242 -179.275 -3.69056 -78.8753 -16.688 30.3862 68.0775 -90.5826 3.18055e-015 -6.36111e-015 -40.6502 -50.66 -33.5652 -175.437 11.476 68.1436 14.7312 -6.5673 -60.6762 -129.688 2.60905e-015 -3.18055e-015 -66.2129 24.5343 41.884 -5.6442 -4.43015 -178.555 -20.5981 -9.93923e-017 9.93923e-017 -9.07186 10.9665 -21.6715 90 -2.38542e-015 3.18055e-015 -45.014 -4.84946 -175.433 -32.2631 -1.98785e-016 -3.72721e-016 5.0696 -6.5769 13.1692 90 6.4605e-015 -0 
491.478 89.6699 178.631 172.068 -66.2764 80.319 -0.886491 -1.12411 -0.163094 -1.77669 -2.24509 -0.343486 -1.77669 -2.24509 -0.343495 -8.3043e-012 -9.0191e-006 -5.27751e-005 3.62513 9.45543 -2.04519 -179.45 -2.90846 -79.2866 -17.6963 32.0509 68.2728 -92.0502 -6.36111e-015 -3.18055e-015 -41.3125 -52.287 -34.6778 -175.594 11.0354 68.073 7.84171 -8.33672 -61.5383 -123.909 2.48481e-015 -1.59028e-015 -67.5906 20.793 37.4553 -2.63483 -7.89371 -178.476 -23.2434 0 -1.59028e-015 -14.5226 11.7204 -24.2432 90 -1.59028e-015 -4.77083e-015 -41.4693 -6.24309 -175.469 -23.0701 1.98785e-016 4.72114e-016 5.92132 -7.27983 14.6207 90 1.85118e-015 -0 
